<?xml version="1.0" standalone="no"?>
<!DOCTYPE svg PUBLIC "-//W3C//DTD SVG 20010904//EN"
 "http://www.w3.org/TR/2001/REC-SVG-20010904/DTD/svg10.dtd">
<svg version="1.0" xmlns="http://www.w3.org/2000/svg"
 width="225.000000pt" height="225.000000pt" viewBox="0 0 225.000000 225.000000"
 preserveAspectRatio="xMidYMid meet">

<g transform="translate(0.000000,225.000000) scale(0.100000,-0.100000)"
fill="#06c80c" stroke="none">
<path d="M1878 2189 c-30 -11 -71 -68 -463 -646 -396 -582 -559 -824 -567
-836 -3 -6 -110 90 -247 224 -248 240 -275 260 -333 246 -30 -8 -144 -111
-210 -190 -40 -48 -48 -65 -48 -98 0 -38 7 -49 91 -137 181 -192 674 -672 705
-687 43 -20 115 -19 160 2 41 20 42 21 601 843 706 1038 673 988 673 1038 0
55 -22 78 -167 176 -102 69 -146 84 -195 65z"/>
</g>
</svg>
